<svg xmlns="http://www.w3.org/2000/svg" viewBox="0 0 299.995 299.995"><path fill="#FF934F" d="M149.992 0C67.156 0 0 67.16 0 150c0 82.837 67.156 149.997 149.992 149.997 82.842 0 150.003-67.16 150.003-149.997 0-82.842-67.16-150-150.003-150zm60.955 217.132v10.374c0 5.73-4.645 10.374-10.374 10.374H96.828c-11.46 0-20.75-9.29-20.75-20.75V86.593c0-11.458 9.29-20.75 20.75-20.75H200.57c5.73 0 10.374 4.646 10.374 10.375v140.915zm20.748-130.54v140.914c0 5.73-4.645 10.374-10.374 10.374h-2.804c1.774-3.055 2.806-6.593 2.806-10.374V76.22c0-3.782-1.03-7.32-2.805-10.375h2.806c5.73 0 10.375 4.645 10.375 10.374v10.37z"/><path fill="#FF934F" d="M175.59 165.517s-3.908-4.692-8.236-1.455c-3.226 2.412-9.023 7.776-10.416 9.078 0 0-9.69-5.166-15.424-9.884-8.494-6.985-14.174-15.608-17.15-20.513l-2.224-4.19c.775-.836 6.71-7.19 9.277-10.64 3.232-4.326-1.452-8.235-1.452-8.235s-13.183-13.183-16.184-15.798c-3-2.622-6.46-1.167-6.46-1.167-6.314 4.082-12.86 7.628-13.247 24.686-.013 15.967 12.11 32.436 25.215 45.186 13.13 14.402 31.162 28.833 48.588 28.817 17.055-.384 20.598-6.93 24.678-13.245 0 0 1.46-3.456-1.16-6.46-2.62-3.007-15.802-16.183-15.802-16.183z"/></svg>
